<?xml version="1.0" encoding="UTF-8"?>
<svg version="1.1" xmlns="http://www.w3.org/2000/svg" width="512" height="512">
<path d="M0 0 C1.01790619 0.00215515 2.03581238 0.0043103 3.08456421 0.00653076 C17.69363523 0.05620146 32.02575853 0.30709809 46.375 3.3125 C47.34985352 3.51117676 48.32470703 3.70985352 49.32910156 3.91455078 C97.7109774 14.03517194 141.69928269 35.9516877 177.375 70.3125 C178.3640332 71.26068604 178.3640332 71.26068604 179.37304688 72.22802734 C188.86130305 81.37247479 197.6012044 90.66984009 205.375 101.3125 C206.23306152 102.46355017 207.09113451 103.61459177 207.94921875 104.765625 C213.98736829 112.95680614 219.34595521 121.47054105 224.375 130.3125 C224.73948242 130.94430176 225.10396484 131.57610352 225.47949219 132.22705078 C247.08534998 169.97532572 256.85198095 212.74189997 256.6875 255.9375 C256.68534485 256.95540619 256.6831897 257.97331238 256.68096924 259.02206421 C256.63129854 273.63113523 256.38040191 287.96325853 253.375 302.3125 C253.07698486 303.77478027 253.07698486 303.77478027 252.77294922 305.26660156 C242.65232806 353.6484774 220.7358123 397.63678269 186.375 433.3125 C185.74287598 433.97185547 185.11075195 434.63121094 184.45947266 435.31054688 C175.31502521 444.79880305 166.01765991 453.5387044 155.375 461.3125 C154.22394983 462.17056152 153.07290823 463.02863451 151.921875 463.88671875 C143.73224019 469.92427396 135.22961724 475.30707302 126.375 480.3125 C125.66778809 480.7146875 124.96057617 481.116875 124.23193359 481.53125 C101.09654164 494.5566741 75.92537591 503.30551461 49.9375 508.625 C49.21860596 508.77235596 48.49971191 508.91971191 47.7590332 509.0715332 C33.08339502 511.86090125 18.55831162 512.66142619 3.64770508 512.62817383 C0.70811513 512.6250221 -2.2304558 512.64854926 -5.16992188 512.67382812 C-18.54306192 512.71848737 -31.43916711 511.51301542 -44.625 509.3125 C-46.33055054 509.03031616 -46.33055054 509.03031616 -48.07055664 508.74243164 C-91.33802759 500.97044532 -132.38793216 480.98345309 -165.625 452.3125 C-166.37007813 451.67828125 -167.11515625 451.0440625 -167.8828125 450.390625 C-181.38779833 438.57948485 -194.05918743 425.82889772 -204.625 411.3125 C-205.48149066 410.16255169 -206.33826433 409.01281411 -207.1953125 407.86328125 C-213.23534209 399.67315742 -218.61867614 391.16870382 -223.625 382.3125 C-224.0271875 381.60528809 -224.429375 380.89807617 -224.84375 380.16943359 C-237.8691741 357.03404164 -246.61801461 331.86287591 -251.9375 305.875 C-252.08485596 305.15610596 -252.23221191 304.43721191 -252.3840332 303.6965332 C-255.35789088 288.05024391 -255.99800362 272.57681954 -255.9375 256.6875 C-255.93534485 255.66959381 -255.9331897 254.65168762 -255.93096924 253.60293579 C-255.88129854 238.99386477 -255.63040191 224.66174147 -252.625 210.3125 C-252.42632324 209.33764648 -252.22764648 208.36279297 -252.02294922 207.35839844 C-241.90232806 158.9765226 -219.9858123 114.98821731 -185.625 79.3125 C-184.99287598 78.65314453 -184.36075195 77.99378906 -183.70947266 77.31445312 C-174.56502521 67.82619695 -165.26765991 59.0862956 -154.625 51.3125 C-153.47394983 50.45443848 -152.32290823 49.59636549 -151.171875 48.73828125 C-142.98224019 42.70072604 -134.47961724 37.31792698 -125.625 32.3125 C-124.91778809 31.9103125 -124.21057617 31.508125 -123.48193359 31.09375 C-100.34654164 18.0683259 -75.17537591 9.31948539 -49.1875 4 C-48.46860596 3.85264404 -47.74971191 3.70528809 -47.0090332 3.5534668 C-31.36274391 0.57960912 -15.88931954 -0.06050362 0 0 Z " fill="#ED5C48" transform="translate(255.625,-0.3125)"/>
<path d="M0 0 C0.70715816 -0.01088121 1.41431631 -0.02176241 2.14290351 -0.03297335 C4.52475097 -0.06684457 6.90649 -0.08617823 9.28849792 -0.10536194 C10.99182459 -0.12607072 12.69514293 -0.14747502 14.39845276 -0.16952515 C20.00646729 -0.23757026 25.61455708 -0.28298652 31.2228241 -0.32435608 C32.177563 -0.33159927 33.1323019 -0.33884245 34.11597228 -0.34630513 C43.12574904 -0.41354334 52.13554766 -0.47168461 61.14549732 -0.50983334 C72.65871371 -0.55923656 84.16976543 -0.65177209 95.68209726 -0.80374521 C103.78161909 -0.90702174 111.88055791 -0.96003721 119.98071593 -0.97650343 C124.81509594 -0.98768698 129.64698698 -1.02058172 134.48064613 -1.10763359 C139.03792648 -1.18865381 143.5913535 -1.20692372 148.14922714 -1.17899895 C149.81292685 -1.17937916 151.47680375 -1.20165631 153.13984108 -1.24860001 C160.23996171 -1.43821262 166.3634973 -1.54969686 172.02525902 3.19145012 C174.87630966 5.89464135 177.43106595 8.79687774 179.92321813 11.83024585 C181.59879969 13.79074749 183.46780653 15.43780123 185.45329285 17.07798767 C189.17046786 20.23290091 192.5544315 23.66333441 195.97673035 27.13267517 C198.57696046 29.69641083 201.29102945 32.08168642 204.08610535 34.42955017 C204.78477722 35.05603455 205.4834491 35.68251892 206.20329285 36.32798767 C206.77085297 36.76332825 207.33841309 37.19866882 207.923172 37.64720154 C210.82884063 40.10884443 212.90345027 42.03850231 213.78401184 45.82539368 C213.92548816 48.78474664 213.85911447 51.67328718 213.71891785 54.63267517 C213.69058541 56.84750649 213.66327323 59.06235106 213.6368866 61.27720642 C213.55391496 64.74286807 213.45315977 68.20675357 213.33073425 71.67124939 C212.12804035 84.85115733 212.12804035 84.85115733 216.44206238 96.67906189 C219.24994734 98.96784207 222.00438146 100.64346607 225.20329285 102.32798767 C226.53733379 103.39825798 227.84193854 104.50717612 229.10173035 105.66392517 C229.67697449 106.16553162 230.25221863 106.66713806 230.84489441 107.1839447 C231.70292664 107.93587097 231.70292664 107.93587097 232.57829285 108.70298767 C238.03404489 113.46091097 243.52772334 118.16851987 249.07975769 122.81382751 C250.46254172 123.97543745 251.83356731 125.15100795 253.20329285 126.32798767 C254.0149429 126.89773268 254.0149429 126.89773268 254.84298992 127.47898769 C257.01085961 130.42567768 256.6118194 133.63538022 256.57751465 137.1541748 C256.58148905 137.95978676 256.58546346 138.76539872 256.5895583 139.59542316 C256.59920893 142.30406311 256.58734668 145.01218436 256.5756073 147.72080994 C256.57803433 149.65887141 256.58175279 151.59693164 256.58666992 153.5349884 C256.596094 158.80550467 256.58664106 164.07583573 256.57333779 169.34633756 C256.56204384 174.85339982 256.56612917 180.36045268 256.56808472 185.86752319 C256.56896827 195.11568742 256.55787387 204.36377843 256.53947449 213.61192322 C256.5182997 224.31663784 256.51479795 235.02124521 256.52103645 245.72597653 C256.52672324 256.00906328 256.52109294 266.29211212 256.5098629 276.57519341 C256.50520846 280.95834489 256.50434669 285.34147325 256.50644875 289.72462654 C256.50832693 294.88165199 256.50026411 300.03856766 256.48438835 305.19556808 C256.48013165 307.09270588 256.47930419 308.98985478 256.48207855 310.88699532 C256.48528107 313.46771367 256.47626773 316.04809999 256.46398926 318.62878418 C256.46776858 319.38742895 256.47154791 320.14607372 256.47544175 320.92770773 C256.43162198 326.09965853 256.43162198 326.09965853 254.20329285 328.32798767 C252.00794029 328.578686 252.00794029 328.578686 249.21510315 328.57966995 C248.15340219 328.58488545 247.09170124 328.59010094 245.99782753 328.59547448 C244.82216917 328.59101304 243.64651081 328.58655159 242.43522644 328.58195496 C241.1935288 328.58507494 239.95183117 328.58819492 238.67250633 328.59140944 C235.21473162 328.59802952 231.75717265 328.5956158 228.29941082 328.58943701 C224.57475714 328.58492834 220.85012289 328.59188836 217.12547302 328.59739685 C209.82447408 328.60630952 202.52351616 328.60436053 195.22251558 328.59857157 C189.29103539 328.59406243 183.35956674 328.59343892 177.42808533 328.5956192 C176.58522394 328.59592567 175.74236254 328.59623213 174.8739599 328.59654789 C173.16192643 328.59718731 171.44989295 328.59783574 169.73785949 328.59849307 C153.66839455 328.60420185 137.59895239 328.59762989 121.52949119 328.58689234 C107.7286897 328.57795633 93.92792185 328.57950822 80.12712097 328.58872986 C64.11679085 328.59942283 48.10648073 328.60365248 32.09614754 328.59750533 C30.39026515 328.5968682 28.68438276 328.59623946 26.97850037 328.5956192 C26.13908224 328.59531065 25.29966412 328.5950021 24.43480909 328.5946842 C18.50759552 328.59295433 12.58039459 328.59587862 6.65318298 328.60057831 C-0.56600996 328.60617635 -7.78515939 328.60469348 -15.00434732 328.59401682 C-18.69061841 328.58874553 -22.37681684 328.586728 -26.06308746 328.59331512 C-30.05164669 328.60033484 -34.04008585 328.59197689 -38.02864075 328.58195496 C-39.79212829 328.58864712 -39.79212829 328.58864712 -41.59124184 328.59547448 C-42.65294279 328.59025899 -43.71464375 328.58504349 -44.80851746 328.57966995 C-45.73015371 328.57934525 -46.65178997 328.57902054 -47.6013546 328.578686 C-49.79670715 328.32798767 -49.79670715 328.32798767 -51.79670715 326.32798767 C-52.00079426 323.73140354 -52.07914831 321.24057747 -52.07086182 318.64224243 C-52.0760985 317.8396016 -52.08133517 317.03696076 -52.08673054 316.20999748 C-52.10179947 313.50538144 -52.1024372 310.80095344 -52.10310364 308.09629822 C-52.11072056 306.16325051 -52.11914724 304.23020584 -52.12832642 302.29716492 C-52.15032588 297.03471298 -52.15907775 291.77231916 -52.16415286 286.50982642 C-52.16779036 283.22423403 -52.17402726 279.938657 -52.18115425 276.65307045 C-52.20566877 265.19680229 -52.21870473 253.74057954 -52.22224426 242.2842865 C-52.22587993 231.59603074 -52.2557725 220.90806209 -52.29764885 210.21989411 C-52.33231236 201.05211323 -52.34779203 191.88442764 -52.3484903 182.71658164 C-52.34928453 177.23730261 -52.3580901 171.75831572 -52.38648796 166.27910423 C-52.41260069 161.12524407 -52.41491179 155.97191961 -52.39883232 150.81802368 C-52.39701234 148.92535551 -52.40375784 147.03265702 -52.41965103 145.1400547 C-52.44001633 142.55762558 -52.42961721 139.97708756 -52.41143799 137.39468384 C-52.42463796 136.64409547 -52.43783792 135.8935071 -52.45143789 135.12017363 C-52.38747011 131.14699578 -51.94924453 129.51031372 -49.36317539 126.41921711 C-48.51624087 125.72911139 -47.66930635 125.03900568 -46.79670715 124.32798767 C-46.24289368 123.8242865 -45.6890802 123.32058533 -45.1184845 122.80162048 C-44.62815735 122.38235291 -44.1378302 121.96308533 -43.63264465 121.53111267 C-43.07351379 121.05198425 -42.51438293 120.57285583 -41.93830872 120.07920837 C-41.3553302 119.58380554 -40.77235168 119.08840271 -40.17170715 118.57798767 C-39.55779114 118.05358093 -38.94387512 117.52917419 -38.31135559 116.98887634 C-33.73320693 113.09079776 -29.08147245 109.28940118 -24.4099884 105.50376892 C-20.76882374 102.47218639 -17.27635765 99.28843357 -13.7928009 96.07798767 C-11.79670715 94.32798767 -11.79670715 94.32798767 -9.79670715 93.32798767 C-9.7886203 92.19237396 -9.78053345 91.05676025 -9.77220154 89.88673401 C-9.69483721 79.20333431 -9.60712285 68.5200635 -9.50918007 57.83683205 C-9.45915759 52.34400094 -9.41282823 46.85118962 -9.37483215 41.35826111 C-9.33805436 36.06084156 -9.29171521 30.76358528 -9.23864365 25.46630478 C-9.22005966 23.4416578 -9.20496664 21.41697578 -9.19336319 19.39227676 C-9.17656902 16.56419779 -9.14755109 13.73649605 -9.11555481 10.90855408 C-9.11339462 10.06482742 -9.11123444 9.22110077 -9.10900879 8.35180664 C-8.99813699 0.71995586 -7.34671315 0.08688779 0 0 Z " fill="#FDF7F7" transform="translate(153.7967071533203,91.67201232910156)"/>
<path d="M0 0 C53.79 0 107.58 0 163 0 C163.33 13.2 163.66 26.4 164 40 C166.15456969 42.15456969 171.0711627 41.26026626 174.06640625 41.31640625 C175.42934059 41.3475779 175.42934059 41.3475779 176.81980896 41.37937927 C179.73395946 41.44497672 182.64820304 41.5038068 185.5625 41.5625 C187.53321291 41.60567554 189.50391626 41.64928951 191.47460938 41.69335938 C196.31630988 41.80066843 201.15810437 41.90190675 206 42 C206.32804924 57.04680894 206.57440345 72.09333955 206.72537041 87.14297104 C206.79735511 94.13217944 206.89535128 101.11915769 207.05615234 108.10693359 C207.21140589 114.85689458 207.2920852 121.60454356 207.3282814 128.35617828 C207.3540578 130.92559419 207.40439887 133.49489007 207.48022079 136.06331635 C208.08068417 157.2556149 208.08068417 157.2556149 202.93621826 163.19604492 C199.59035061 166.34754839 195.94067567 168.65543211 192 171 C190.58504027 172.16287258 189.18866832 173.35053707 187.84375 174.59375 C187.28429687 175.07972656 186.72484375 175.56570313 186.1484375 176.06640625 C185.60445312 176.53949219 185.06046875 177.01257813 184.5 177.5 C179.11334898 182.17669493 173.70888956 186.83173718 168.28491211 191.46508789 C165.18655651 194.11474937 162.10251105 196.77932354 159.03515625 199.46484375 C158.37193359 200.04427734 157.70871094 200.62371094 157.02539062 201.22070312 C155.7600364 202.32741592 154.49684426 203.43660801 153.23632812 204.54882812 C149.31957546 207.97110703 145.27481552 211.03547276 141 214 C140.33355469 213.38253906 139.66710937 212.76507813 138.98046875 212.12890625 C133.32194651 206.929397 127.56978034 201.93603195 121.58203125 197.11328125 C118.51891386 194.60625173 115.57571708 191.98455462 112.65625 189.3125 C108.93194333 186.36116264 104.45718538 186.48128821 99.90234375 186.53515625 C94.73441297 187.36285983 91.69968004 190.49402049 88 194 C86.37614848 195.45961205 84.75110927 196.91790366 83.125 198.375 C82.3 199.12394531 81.475 199.87289062 80.625 200.64453125 C77.82388494 203.15803182 74.99675253 205.62991175 72.125 208.0625 C71.24070312 208.81660156 70.35640625 209.57070313 69.4453125 210.34765625 C67 212 67 212 63 212 C60.80859375 210.34765625 60.80859375 210.34765625 58.4375 208.0625 C54.88676093 204.73074925 51.29461344 201.55183804 47.5 198.5 C43.03723787 194.88967558 38.77280467 191.11572071 34.53125 187.25 C31.9115519 184.92137947 29.2248469 182.70437053 26.5 180.5 C22.08661704 176.92962277 17.84545469 173.23014879 13.70410633 169.34755611 C11.07109487 166.95438586 11.07109487 166.95438586 8.14937115 165.13761997 C3.7603343 162.17207109 0.55592238 159.86408975 -0.99512291 154.6632061 C-1.35435452 150.55889651 -1.3638378 146.58657804 -1.2487793 142.47436523 C-1.24540486 140.89132771 -1.24688616 139.30827365 -1.25279713 137.72524357 C-1.25526899 133.50602633 -1.19178475 129.29027845 -1.11408234 125.07187653 C-1.0511757 121.10579676 -1.04847505 117.14053706 -1.04064941 113.1739502 C-0.98305518 101.59467833 -0.82948044 90.01604462 -0.6875 78.4375 C-0.460625 52.553125 -0.23375 26.66875 0 0 Z " fill="#F16A42" transform="translate(153,100)"/>
<path d="M0 0 C2.60546875 1.96875 2.60546875 1.96875 5.1875 4.5 C6.14011719 5.4075 7.09273437 6.315 8.07421875 7.25 C8.55938965 7.71277344 9.04456055 8.17554688 9.54443359 8.65234375 C11.77251048 10.71523949 14.13102506 12.60210877 16.5 14.5 C20.28460334 17.55348679 23.92207537 20.70668301 27.5 24 C31.9698512 28.11378909 36.59044893 31.97087297 41.31640625 35.78515625 C44.80550916 38.66480887 48.12996921 41.70693876 51.47265625 44.75390625 C54.06962393 47.06187598 56.73404013 49.25555863 59.4375 51.4375 C64.211403 55.29825137 68.73388428 59.37437075 73.25 63.53125 C75.93737634 65.94378104 78.68965444 68.2325621 81.5 70.5 C85.28460334 73.55348679 88.92207537 76.70668301 92.5 80 C96.9698512 84.11378909 101.59044893 87.97087297 106.31640625 91.78515625 C108.94708557 93.95632827 111.47942424 96.20241357 114 98.5 C119.16868505 103.2077832 124.56206786 107.60880597 130 112 C132.02795673 113.64112105 134.02645808 115.29315293 136 117 C136 117.33 136 117.66 136 118 C43.93 118 -48.14 118 -143 118 C-134.58210604 109.58210604 -125.89805026 101.60190722 -116.61328125 94.14453125 C-114.00152377 92.00125044 -111.49634698 89.7761967 -109 87.5 C-105.62539052 84.42346328 -102.18184136 81.48881783 -98.625 78.625 C-94.07219493 74.94428153 -89.76582589 71.07351352 -85.4831543 67.08862305 C-81.37239043 63.28614986 -77.07733477 59.75736701 -72.71484375 56.24609375 C-69.89326505 53.9116941 -67.19409288 51.48009402 -64.5 49 C-60.05272888 44.90648909 -55.45282537 41.07557501 -50.75 37.28125 C-47.91900422 34.93281032 -45.20616402 32.49090098 -42.5 30 C-38.05540197 25.90894954 -33.45910165 22.07956059 -28.7578125 18.2890625 C-25.87935983 15.89986524 -23.12505251 13.41056373 -20.375 10.875 C-13.43296399 4.54695291 -13.43296399 4.54695291 -10.1875 1.8125 C-9.18783203 0.95591797 -9.18783203 0.95591797 -8.16796875 0.08203125 C-5.02023363 -1.48900051 -3.32256808 -1.03830252 0 0 Z " fill="#E43C56" transform="translate(260,294)"/>
<path d="M0 0 C0 58.41 0 116.82 0 177 C-5.10018586 173.1748606 -9.75353598 169.53920567 -14.3125 165.1875 C-19.13158528 160.65950511 -24.09481295 156.41809643 -29.25390625 152.27734375 C-32.26319052 149.78173531 -35.13938654 147.16234857 -38 144.5 C-41.73327255 141.02580757 -45.52371111 137.6993129 -49.5 134.5 C-54.01777813 130.86500611 -58.27818516 127.0328971 -62.51953125 123.0859375 C-65.75211747 120.09558642 -69.06705866 117.26213671 -72.5 114.5 C-77.00954804 110.87162802 -81.27205941 107.05532565 -85.49316406 103.10131836 C-89.79300697 99.10347817 -94.32952252 95.51370826 -99.015625 91.97265625 C-99.67046875 91.32167969 -100.3253125 90.67070312 -101 90 C-101 86 -101 86 -98.2109375 83.1875 C-96.94204076 82.11337595 -95.66259716 81.05163443 -94.375 80 C-93.69638916 79.42967041 -93.01777832 78.85934082 -92.31860352 78.27172852 C-90.90730931 77.0857959 -89.49229295 75.90427972 -88.07373047 74.72705078 C-84.9980423 72.16554642 -81.96969169 69.5501758 -78.9375 66.9375 C-77.77907071 65.94481646 -76.62021605 64.95262912 -75.4609375 63.9609375 C-74.88956055 63.47206055 -74.31818359 62.98318359 -73.72949219 62.47949219 C-72.5764974 61.49316406 -71.4235026 60.50683594 -70.27050781 59.52050781 C-63.66288828 53.86694953 -57.06769919 48.19991545 -50.5 42.5 C-43.93385589 36.80143416 -37.34007376 31.13595027 -30.73388672 25.48388672 C-28.40446677 23.49033357 -26.07661872 21.49495062 -23.74902344 19.49926758 C-22.59244376 18.50784438 -21.43554788 17.51678993 -20.27832031 16.52612305 C-17.19320523 13.88441696 -14.11432914 11.23581646 -11.04296875 8.578125 C-10.07520508 7.7428125 -10.07520508 7.7428125 -9.08789062 6.890625 C-7.84137366 5.81449524 -6.5965212 4.73643376 -5.35351562 3.65625 C-1.1124622 0 -1.1124622 0 0 0 Z " fill="#E94C52" transform="translate(403,231)"/>
<path d="M0 0 C4.78881051 3.59160789 9.02818512 6.79470548 13.3125 10.8125 C17.84365617 14.99318 22.52026176 18.91422545 27.31640625 22.78515625 C29.94708557 24.95632827 32.47942424 27.20241357 35 29.5 C38.41739372 32.61458668 41.9052235 35.5918662 45.5 38.5 C49.0947765 41.4081338 52.58260628 44.38541332 56 47.5 C59.31989486 50.52282421 62.69764112 53.42512161 66.1875 56.25 C71.29089776 60.3830334 76.26409365 64.6480892 81.20800781 68.96923828 C84.46605977 71.81482586 87.74209494 74.63113602 91.0703125 77.39453125 C91.71959717 77.93746826 92.36888184 78.48040527 93.0378418 79.03979492 C94.28080764 80.07701086 95.52948459 81.10743027 96.78442383 82.13012695 C98.24612629 83.35568048 99.63130797 84.67137753 101 86 C101 89 101 89 99.19921875 90.9453125 C98.37035156 91.66460937 97.54148437 92.38390625 96.6875 93.125 C95.7696875 93.92550781 94.851875 94.72601563 93.90625 95.55078125 C91.19194353 97.83824114 88.44929156 100.08275946 85.6875 102.3125 C80.87414563 106.20255931 76.3523855 110.32871834 71.83886719 114.55566406 C67.62606859 118.47878593 63.23604648 122.11896414 58.74609375 125.72265625 C55.73680948 128.21826469 52.86061346 130.83765143 50 133.5 C45.41242561 137.76920779 40.66556996 141.75758739 35.78125 145.6875 C32.75980368 148.19971379 29.87563313 150.8240572 27 153.5 C22.35789762 157.81849608 17.5642411 161.87695636 12.62109375 165.8515625 C9.20776715 168.64937119 5.93877615 171.59147302 2.6796875 174.56640625 C1 176 1 176 0 176 C0 117.92 0 59.84 0 0 Z " fill="#E84B51" transform="translate(110,231)"/>
<path d="M0 0 C12.55317463 9.05777928 23.0521334 22.60872945 25.91796875 38.10546875 C27.27588453 50.56691971 27.14059603 64.01591078 19.73046875 74.66796875 C15.0603244 78.71542719 9.85559087 80.17921629 3.73046875 80.54296875 C-2.0339981 79.88147255 -5.19809443 77.30305249 -8.83203125 72.98046875 C-9.57453125 72.03171875 -10.31703125 71.08296875 -11.08203125 70.10546875 C-11.74203125 69.44546875 -12.40203125 68.78546875 -13.08203125 68.10546875 C-14.31953125 69.25015625 -14.31953125 69.25015625 -15.58203125 70.41796875 C-21.27469299 75.09978401 -27.23444418 76.71883719 -34.5703125 76.44921875 C-42.41354152 75.37580638 -48.88549041 70.9368811 -54.08203125 65.10546875 C-58.57103459 58.04761378 -59.8624593 51.41145296 -59.08203125 43.10546875 C-57.12544956 35.73882082 -52.42161683 28.86557281 -45.95703125 24.75390625 C-40.10576174 21.76373544 -34.71478127 20.21853125 -28.08203125 21.10546875 C-17.65867359 24.52882641 -17.65867359 24.52882641 -14.08203125 28.10546875 C-13.89640625 26.43484375 -13.89640625 26.43484375 -13.70703125 24.73046875 C-13.08203125 21.10546875 -13.08203125 21.10546875 -11.08203125 19.10546875 C-8.51953125 18.91796875 -8.51953125 18.91796875 -6.08203125 19.10546875 C-4.5503882 20.6371118 -4.94994013 22.02845241 -4.94018555 24.1628418 C-4.92963387 25.4550489 -4.92963387 25.4550489 -4.91886902 26.77336121 C-4.91470474 27.71182388 -4.91054047 28.65028656 -4.90625 29.6171875 C-4.88304231 31.59180742 -4.85892459 33.56641682 -4.83398438 35.54101562 C-4.79891978 38.66372613 -4.76956105 41.7860525 -4.75610352 44.90893555 C-4.74059533 47.91633148 -4.70035416 50.92259251 -4.65625 53.9296875 C-4.65815842 54.85802902 -4.66006683 55.78637054 -4.66203308 56.74284363 C-4.55424754 62.47647506 -3.86135375 65.71576601 -0.08203125 70.10546875 C3.15096207 71.72196541 6.42262318 71.67572666 9.91796875 71.10546875 C14.57922017 67.96419062 15.45499388 64.80962202 16.51660156 59.61352539 C18.95742164 44.36136928 16.82767267 31.9973439 8.04296875 19.23046875 C0.61943665 9.61706354 -10.21895978 1.33272217 -22.51953125 -0.6796875 C-39.52491538 -2.10544379 -52.52872458 0.68508023 -66.11328125 11.76171875 C-70.87842662 16.19246795 -74.05692379 21.3865336 -77.08203125 27.10546875 C-77.70658203 28.15734375 -77.70658203 28.15734375 -78.34375 29.23046875 C-83.45201933 39.26776989 -82.7119029 54.24882573 -79.45703125 64.79296875 C-73.26526683 80.01258548 -63.70001519 89.0848812 -49.08203125 96.10546875 C-43.80711407 97.97291069 -39.05282503 98.49184304 -33.51953125 98.48046875 C-32.34741089 98.4791394 -32.34741089 98.4791394 -31.15161133 98.4777832 C-22.85041249 98.31126898 -14.55056188 96.83552204 -7.37109375 92.44921875 C-5.08203125 91.10546875 -5.08203125 91.10546875 -2.26953125 91.41796875 C-1.54765625 91.64484375 -0.82578125 91.87171875 -0.08203125 92.10546875 C0.24796875 93.42546875 0.57796875 94.74546875 0.91796875 96.10546875 C-7.35446434 104.37790184 -19.19493577 107.2209755 -30.58203125 107.35546875 C-47.08684686 107.3120797 -60.85606948 101.9268519 -72.8671875 90.421875 C-79.01511436 83.99203262 -83.59220011 77.29954113 -87.08203125 69.10546875 C-87.56349609 68.00525391 -87.56349609 68.00525391 -88.0546875 66.8828125 C-92.84658864 53.88895964 -91.024414 36.67080125 -85.86328125 24.1484375 C-82.35094609 17.17254961 -77.57461291 11.60747165 -72.08203125 6.10546875 C-71.44394531 5.45578125 -70.80585938 4.80609375 -70.1484375 4.13671875 C-51.17866936 -13.8470947 -21.29056872 -13.19059013 0 0 Z " fill="#FDF8F7" transform="translate(288.08203125,146.89453125)"/>
<path d="M0 0 C5.04663371 2.82611488 8.97669864 6.93009592 10.8125 12.4375 C11.38310449 18.71414941 11.10860875 23.90854339 7.8125 29.4375 C4.08385233 33.33726918 -0.04746825 37.03851907 -5.5546875 37.73828125 C-11.9607781 37.76821625 -16.29058863 37.26829928 -21.0703125 32.59765625 C-26.4121028 26.79089231 -27.57615225 22.81096789 -27.4609375 14.96484375 C-26.75604255 8.44960046 -22.71420264 4.63568884 -17.87109375 0.6015625 C-12.67497495 -2.99111361 -5.55696669 -2.50063501 0 0 Z " fill="#F26C43" transform="translate(264.1875,177.5625)"/>
<path d="M0 0 C4.9135106 3.68513295 9.67764122 7.31903002 14.3125 11.3125 C17.59591823 14.12948782 20.8812225 16.92948325 24.28125 19.60546875 C25.2815625 20.39566406 26.281875 21.18585938 27.3125 22 C28.21613281 22.70125 29.11976563 23.4025 30.05078125 24.125 C30.69402344 24.74375 31.33726562 25.3625 32 26 C32 29 32 29 29.76171875 31.3828125 C28.74525653 32.30607087 27.71986564 33.21955941 26.6875 34.125 C26.14641602 34.61000977 25.60533203 35.09501953 25.04785156 35.59472656 C20.65679506 39.49987698 16.13343608 43.23506229 11.5546875 46.91796875 C8.44324547 49.45374643 5.44400121 52.10039891 2.4609375 54.78515625 C1 56 1 56 0 56 C0 37.52 0 19.04 0 0 Z " fill="#F06546" transform="translate(367,195)"/>
<path d="M0 0 C0.66 0 1.32 0 2 0 C2 17.82 2 35.64 2 54 C-2.0600385 51.29330766 -5.21356119 49.05051767 -8.6875 45.8125 C-13.95548934 40.98946904 -19.44912651 36.49108231 -25 32 C-27.00678921 30.34120892 -29.00427329 28.67209535 -31 27 C-27.29326537 23.19608507 -23.4212484 19.68821937 -19.375 16.25 C-18.76760986 15.73139404 -18.16021973 15.21278809 -17.53442383 14.6784668 C-12.74547102 10.60237577 -7.89802083 6.60350593 -3.01171875 2.64453125 C-1.12373351 1.15704175 -1.12373351 1.15704175 0 0 Z " fill="#F06546" transform="translate(143,196)"/>
<path d="M0 0 C4.22544769 3.62181231 8.10074976 6.99860666 11.9375 10.9375 C15.52079803 14.56980971 19.17673955 17.98950331 23.11328125 21.234375 C25.63945202 23.59841058 27.78509122 26.34210947 30 29 C20.1 29 10.2 29 0 29 C0 19.43 0 9.86 0 0 Z " fill="#F77F3B" transform="translate(324,105)"/>
</svg>
